<svg xmlns="http://www.w3.org/2000/svg" xmlns:xlink="http://www.w3.org/1999/xlink" viewBox="0 0 334.78 256.68"><defs><style>.cls-1{fill:none;}.cls-2{clip-path:url(#clip-path);}.cls-3{fill:#f9b233;}.cls-4,.cls-5{fill:#fff;}.cls-5{font-size:79px;font-family:NormalidadExtended-Black, Normalidad;font-weight:800;}</style><clipPath id="clip-path" transform="translate(0 0)"><rect class="cls-1" x="89.83" width="129.92" height="123.6"/></clipPath></defs><g id="Layer_2" data-name="Layer 2"><g id="Layer_1-2" data-name="Layer 1"><g class="cls-2"><path class="cls-3" d="M109.82,0c-11,0-20,8.49-20,19v85.68c0,10.47,9,19,20,19h89.93c11.05,0,20-8.49,20-19V19c0-10.47-8.95-19-20-19Z" transform="translate(0 0)"/><path class="cls-4" d="M193.92,43.29l-37-20.54a1.85,1.85,0,0,0-1.82,0L118,43.29a2.06,2.06,0,0,0-1,1.82v8.21a2,2,0,0,0,1.94,2.06,1.82,1.82,0,0,0,.91-.24L156,35.1l36.14,20a1.82,1.82,0,0,0,.91.24,2,2,0,0,0,2-2.05h0V45.11a2.06,2.06,0,0,0-1-1.82" transform="translate(0 0)"/><path class="cls-4" d="M167.18,68.52l.43-.65a1.89,1.89,0,0,1,2.71-.53,2.14,2.14,0,0,1,.51,2.86l0,0L167.64,75a1.91,1.91,0,0,1-1.25.84l-.34,0a1.9,1.9,0,0,1-1.12-.37l-4.52-3.33a2.12,2.12,0,0,1-.48-2.86,1.89,1.89,0,0,1,2.72-.51l.7.52A7.65,7.65,0,0,0,153.67,64a6.52,6.52,0,0,0-.83.33,1.91,1.91,0,0,1-2.6-1,2.11,2.11,0,0,1,.92-2.74l.11,0a11.38,11.38,0,0,1,15.32,6.2,11.61,11.61,0,0,1,.59,1.75Zm-6.54,14.54a11.38,11.38,0,0,1-15.32-6.21,13.65,13.65,0,0,1-.6-1.77l-.42.63a1.9,1.9,0,0,1-2.72.49,2.12,2.12,0,0,1-.46-2.87l3.16-4.7a1.9,1.9,0,0,1,2.71-.5l4.52,3.34a2.12,2.12,0,0,1,.47,2.86,1.87,1.87,0,0,1-2.71.5l-.7-.51a7.65,7.65,0,0,0,9.68,5.31c.28-.1.56-.21.83-.33a1.91,1.91,0,0,1,2.6,1,2.11,2.11,0,0,1-.94,2.73l-.1,0M124.76,57V94.41a2,2,0,0,0,1.95,2.06h58.5a2,2,0,0,0,1.95-2.06h0V57L156,39.74Z" transform="translate(0 0)"/></g><text class="cls-5" transform="translate(0 201.08)">E-cco</text></g></g></svg>